<?xml version="1.0" encoding="utf-8"?>
<!-- Generator: Adobe Illustrator 17.1.0, SVG Export Plug-In . SVG Version: 6.00 Build 0)  -->
<!DOCTYPE svg PUBLIC "-//W3C//DTD SVG 1.1//EN" "http://www.w3.org/Graphics/SVG/1.1/DTD/svg11.dtd">
<svg version="1.1" id="圖層_1" xmlns="http://www.w3.org/2000/svg" xmlns:xlink="http://www.w3.org/1999/xlink" x="0px" y="0px"
	 viewBox="0 0 150 150" enable-background="new 0 0 150 150" xml:space="preserve">
<g>
	<path fill="#77B55A" d="M19.1,76.1c-0.4-3.8-2.9-5.7-7.3-5.7c-3.9,0-6.4,1.6-6.4,4c0,2,1.5,3.3,5.3,4.1l4.8,1
		c3.5,0.8,5.2,1.5,6.6,2.7c1.5,1.3,2.4,3.2,2.4,5.3c0,5.3-4.5,8.5-11.6,8.5C5.2,95.9,0.6,92.3,0,85.6h4.4c0.4,4.4,3.5,6.9,8.6,6.9
		c4.2,0,7.2-2,7.2-4.8c0-2.1-1.6-3.5-4.7-4.2L8.9,82c-5.4-1.2-7.8-3.5-7.8-7.2c0-4.9,4.3-8,11-8c6.7,0,10.3,3,11.3,9.2H19.1z"/>
	<path fill="#77B55A" d="M34.1,95.3h-4.2V67.5h4.2V95.3z"/>
	<path fill="#77B55A" d="M51.6,95.3h-4.2V70.9h-9.2v-3.5h22.5v3.5h-9.2V95.3z"/>
	<path fill="#77B55A" d="M84.2,76.2c-0.9-3.7-3.8-5.9-7.9-5.9c-5.6,0-9.3,4.3-9.3,10.9c0,6.7,3.7,11.3,9.2,11.3
		c4.6,0,7.7-2.9,8.4-7.8h4.2c-0.4,2.8-1,4.5-2.5,6.5c-2.4,3.2-5.8,4.8-10.2,4.8c-4.4,0-7.8-1.6-10.3-4.8c-2.1-2.7-3.2-6.1-3.2-9.9
		c0-8.5,5.7-14.4,13.7-14.4c6.3,0,10.7,3.3,12,9L84.2,76.2z"/>
	<path fill="#77B55A" d="M145.8,95.3l-12-17.6c-1.5-2.2-2.3-3.5-3-4.8c0.1,1.3,0.1,3.9,0.1,5.3v17.1h-4V67.5h4.3l11.5,17
		c1.1,1.6,2.6,4.1,3.5,5.8c-0.1-1.5-0.1-3.3-0.1-5.2V67.6h4v27.7H145.8z"/>
	<g>
		<path fill="#77B55A" d="M112.6,55c2.5-1.9,5.4-1.2,5.4-1.2s-0.5,3.5-3,5.4c-2.5,1.9-6,1.4-6,1.4s0.8-1.2,1.5-2.7
			C111,57.1,111.7,55.7,112.6,55z"/>
		<path fill="#77B55A" d="M106.6,57.9c-1.2-0.9-2.5-0.6-2.5-0.6s0.2,1.6,1.4,2.5c1.2,0.9,2.8,0.7,2.8,0.7s-0.4-0.5-0.7-1.2
			C107.4,58.9,107.1,58.2,106.6,57.9z"/>
		<path fill="#77B55A" d="M106.9,66.3c0.3,0,0.7,0,1,0c-0.3-1.8-0.2-3.7,0.7-5.3c-1.6,1.3-2.4,3.3-2.8,5.3
			C106.2,66.3,106.6,66.3,106.9,66.3z"/>
		<path fill="#77B55A" d="M106.9,66.9c-8.1,0-14.7,6.6-14.7,14.7s6.6,14.7,14.7,14.7s14.7-6.6,14.7-14.7
			C121.6,73.5,115.1,66.9,106.9,66.9z M112.9,87.6l-6-4.1l-6,4.1l4.1-6l-4.1-6l6,4.1l6-4.1l-4.1,6L112.9,87.6z"/>
	</g>
</g>
</svg>
